# xmcd CD Database Entry
#
# Track frame offsets:
# 150
# 4912
# 23800
# 41800
# 58887
# 77420
# 97260
# 102905
# 122817
# 142955
# 167180
# 184740
# 204712
#
# Disc length: 3000 seconds
#
# Revision: 1
# Processed by: cddbd v1.4b41PL1 Copyright (c) Steve Scherf et al.
# Submitted via: tcd 2.0b
#
DISCID=b50bb60d
DTITLE=박화요비 - 0001-my all
DYEAR=1900
DGENRE=
TTITLE0=Intro(Dream)
TTITLE1=Lie(Radio Ver.)
TTITLE2=첫사랑
TTITLE3=Crazy Love
TTITLE4=바램
TTITLE5=가시
TTITLE6=Interlude(Gray)
TTITLE7=Promise
TTITLE8=Always
TTITLE9=후
TTITLE10=여기까지만
TTITLE11=그런일은...
TTITLE12=Lie(Original Version)
EXTD=
EXTT0=
EXTT1=
EXTT2=
EXTT3=
EXTT4=
EXTT5=
EXTT6=
EXTT7=
EXTT8=
EXTT9=
EXTT10=
EXTT11=
EXTT12=
PLAYORDER=
